<svg width="117" height="70" viewBox="0 0 117 70" fill="none" xmlns="http://www.w3.org/2000/svg">
<g filter="url(#filter0_d_551_2)">
<path d="M15.55 59.7C14.8033 59.7 14.1967 59.49 13.73 59.07C13.31 58.65 13.1 58.1133 13.1 57.46V37.09C13.1 35.9233 12.4933 35.34 11.28 35.34H6.87C5.42333 35.34 4.7 34.6167 4.7 33.17C4.7 31.7233 5.42333 31 6.87 31H24.16C24.8133 31 25.35 31.21 25.77 31.63C26.19 32.0033 26.4 32.5167 26.4 33.17C26.4 33.8233 26.19 34.36 25.77 34.78C25.35 35.1533 24.8133 35.34 24.16 35.34H19.82C18.6067 35.34 18 35.9233 18 37.09V57.46C18 58.1133 17.7667 58.65 17.3 59.07C16.88 59.49 16.2967 59.7 15.55 59.7ZM33.9819 48.64V57.53C33.9819 58.23 33.7252 58.7667 33.2119 59.14C32.7452 59.5133 32.2085 59.7 31.6019 59.7C30.9952 59.7 30.4352 59.5133 29.9219 59.14C29.4552 58.7667 29.2219 58.23 29.2219 57.53V41.08C29.2219 40.2867 29.4552 39.7033 29.9219 39.33C30.4352 38.91 30.9952 38.7 31.6019 38.7C32.2085 38.7 32.7452 38.91 33.2119 39.33C33.7252 39.7033 33.9819 40.2867 33.9819 41.08V41.36C34.6352 40.4733 35.4752 39.75 36.5019 39.19C37.5752 38.63 38.6952 38.35 39.8619 38.35C40.4219 38.35 40.9819 38.42 41.5419 38.56C42.1019 38.7 42.5219 38.98 42.8019 39.4C43.0819 39.82 43.2219 40.2867 43.2219 40.8C43.2219 41.4067 43.0119 41.9667 42.5919 42.48C42.2185 42.9467 41.6585 43.18 40.9119 43.18C40.5852 43.18 40.2352 43.1333 39.8619 43.04C39.5352 42.9467 39.1152 42.9 38.6019 42.9C37.2485 42.9 36.1285 43.4133 35.2419 44.44C34.4019 45.4667 33.9819 46.8667 33.9819 48.64Z" fill="url(#paint0_linear_551_2)" shape-rendering="crispEdges"/>
<path d="M50.7201 59.7C50.0201 59.7 49.4601 59.49 49.0401 59.07C48.6201 58.65 48.4101 58.1133 48.4101 57.46V44.09C48.4101 43.6233 48.1767 43.39 47.7101 43.39H46.1001C45.4934 43.39 44.9801 43.2033 44.5601 42.83C44.1401 42.41 43.9301 41.8967 43.9301 41.29C43.9301 40.6367 44.1401 40.1 44.5601 39.68C44.9801 39.26 45.4934 39.05 46.1001 39.05H47.7101C48.1767 39.05 48.4101 38.8167 48.4101 38.35V36.53C48.4101 34.1967 49.0167 32.3533 50.2301 31C51.4901 29.6 53.2634 28.9 55.5501 28.9C56.0634 28.9 56.5767 28.97 57.0901 29.11C57.6501 29.2033 58.0701 29.2967 58.3501 29.39C59.2367 29.7167 59.6801 30.37 59.6801 31.35C59.6801 32.0967 59.4467 32.68 58.9801 33.1C58.5601 33.4733 58.0467 33.66 57.4401 33.66C57.1134 33.66 56.8101 33.6133 56.5301 33.52C56.2501 33.4267 55.8534 33.38 55.3401 33.38C54.5467 33.38 53.9867 33.66 53.6601 34.22C53.3334 34.78 53.1701 35.5967 53.1701 36.67V38.35C53.1701 38.8167 53.4034 39.05 53.8701 39.05H56.8801C57.4401 39.05 57.9301 39.26 58.3501 39.68C58.7701 40.1 58.9801 40.6367 58.9801 41.29C58.9801 41.8967 58.7701 42.41 58.3501 42.83C57.9767 43.2033 57.4634 43.39 56.8101 43.39H53.8701C53.4034 43.39 53.1701 43.6233 53.1701 44.09V57.46C53.1701 58.1133 52.9367 58.65 52.4701 59.07C52.0034 59.49 51.4201 59.7 50.7201 59.7ZM65.2101 59.7C64.6034 59.7 64.0434 59.5133 63.5301 59.14C63.0634 58.7667 62.8301 58.23 62.8301 57.53V30.93C62.8301 30.1367 63.0634 29.5533 63.5301 29.18C64.0434 28.76 64.6034 28.55 65.2101 28.55C65.8167 28.55 66.3534 28.76 66.8201 29.18C67.3334 29.5533 67.5901 30.1367 67.5901 30.93V57.53C67.5901 58.23 67.3334 58.7667 66.8201 59.14C66.3534 59.5133 65.8167 59.7 65.2101 59.7ZM75.7637 59.7C75.157 59.7 74.597 59.5133 74.0837 59.14C73.617 58.7667 73.3837 58.23 73.3837 57.53V40.73C73.3837 39.9367 73.617 39.3533 74.0837 38.98C74.597 38.56 75.157 38.35 75.7637 38.35C76.3703 38.35 76.907 38.56 77.3737 38.98C77.887 39.3533 78.1437 39.9367 78.1437 40.73V57.53C78.1437 58.23 77.887 58.7667 77.3737 59.14C76.907 59.5133 76.3703 59.7 75.7637 59.7ZM75.8337 34.5C74.947 34.5 74.177 34.22 73.5237 33.66C72.917 33.0533 72.6137 32.33 72.6137 31.49C72.6137 30.6967 72.917 30.02 73.5237 29.46C74.177 28.8533 74.947 28.55 75.8337 28.55C76.6737 28.55 77.397 28.8533 78.0037 29.46C78.6103 30.02 78.9137 30.6967 78.9137 31.49C78.9137 32.33 78.6103 33.0533 78.0037 33.66C77.397 34.22 76.6737 34.5 75.8337 34.5Z" fill="url(#paint1_linear_551_2)" shape-rendering="crispEdges"/>
<path d="M84.471 59.7C83.8177 59.7 83.1877 59.4667 82.581 59C82.021 58.4867 81.741 57.9033 81.741 57.25C81.741 56.7833 81.881 56.34 82.161 55.92L89.441 46.61C89.8143 46.19 90.001 45.7 90.001 45.14C90.001 44.58 89.8143 44.09 89.441 43.67L82.301 34.5C82.0677 34.08 81.951 33.6367 81.951 33.17C81.951 32.47 82.231 31.8867 82.791 31.42C83.351 30.9067 83.9343 30.65 84.541 30.65C85.1943 30.65 85.731 30.93 86.151 31.49L92.311 40.1C92.591 40.52 92.9177 40.73 93.291 40.73C93.6643 40.73 93.991 40.52 94.271 40.1L100.431 31.49C100.851 30.93 101.388 30.65 102.041 30.65C102.788 30.65 103.418 30.8833 103.931 31.35C104.491 31.8167 104.771 32.3767 104.771 33.03C104.771 33.5433 104.608 34.0333 104.281 34.5L97.141 43.6C96.721 44.0667 96.511 44.58 96.511 45.14C96.511 45.56 96.6977 46.0267 97.071 46.54L104.421 55.92C104.701 56.34 104.841 56.7833 104.841 57.25C104.841 57.9033 104.538 58.4867 103.931 59C103.371 59.4667 102.764 59.7 102.111 59.7C101.458 59.7 100.921 59.42 100.501 58.86L94.201 50.11C93.921 49.69 93.5943 49.48 93.221 49.48C92.8477 49.48 92.521 49.69 92.241 50.11L86.081 58.86C85.661 59.42 85.1243 59.7 84.471 59.7Z" fill="url(#paint2_linear_551_2)" shape-rendering="crispEdges"/>
</g>
<defs>
<filter id="filter0_d_551_2" x="0.700195" y="28.55" width="108.141" height="39.15" filterUnits="userSpaceOnUse" color-interpolation-filters="sRGB">
<feFlood flood-opacity="0" result="BackgroundImageFix"/>
<feColorMatrix in="SourceAlpha" type="matrix" values="0 0 0 0 0 0 0 0 0 0 0 0 0 0 0 0 0 0 127 0" result="hardAlpha"/>
<feOffset dy="4"/>
<feGaussianBlur stdDeviation="2"/>
<feComposite in2="hardAlpha" operator="out"/>
<feColorMatrix type="matrix" values="0 0 0 0 0 0 0 0 0 0 0 0 0 0 0 0 0 0 0.75 0"/>
<feBlend mode="normal" in2="BackgroundImageFix" result="effect1_dropShadow_551_2"/>
<feBlend mode="normal" in="SourceGraphic" in2="effect1_dropShadow_551_2" result="shape"/>
</filter>
<linearGradient id="paint0_linear_551_2" x1="60.5" y1="0" x2="60.5" y2="70" gradientUnits="userSpaceOnUse">
<stop offset="0.101923" stop-color="#00C2FF"/>
<stop offset="0.645192" stop-color="#00C2FF"/>
<stop offset="1" stop-color="white" stop-opacity="0"/>
</linearGradient>
<linearGradient id="paint1_linear_551_2" x1="60.5" y1="0" x2="60.5" y2="70" gradientUnits="userSpaceOnUse">
<stop stop-color="white"/>
<stop offset="1" stop-color="white" stop-opacity="0"/>
</linearGradient>
<linearGradient id="paint2_linear_551_2" x1="60.5" y1="0" x2="60.5" y2="70" gradientUnits="userSpaceOnUse">
<stop offset="0.635577" stop-color="#00C2FF"/>
<stop offset="1" stop-color="white" stop-opacity="0"/>
</linearGradient>
</defs>
</svg>
