<svg width="313" height="146" viewBox="0 0 313 146" fill="none" xmlns="http://www.w3.org/2000/svg">
<g filter="url(#filter0_d_549_21)">
<path d="M38.68 28.35V34.86H25.73V77H17.75V34.86H4.73V28.35H38.68ZM72.0317 77L60.8317 57.54H54.7417V77H46.7617V28.35H63.5617C67.2951 28.35 70.4451 29.0033 73.0117 30.31C75.6251 31.6167 77.5617 33.3667 78.8217 35.56C80.1284 37.7533 80.7817 40.2033 80.7817 42.91C80.7817 46.0833 79.8484 48.9767 77.9817 51.59C76.1617 54.1567 73.3384 55.9067 69.5117 56.84L81.5517 77H72.0317ZM54.7417 51.17H63.5617C66.5484 51.17 68.7884 50.4233 70.2817 48.93C71.8217 47.4367 72.5917 45.43 72.5917 42.91C72.5917 40.39 71.8451 38.43 70.3517 37.03C68.8584 35.5833 66.5951 34.86 63.5617 34.86H54.7417V51.17Z" fill="url(#paint0_linear_549_21)" shape-rendering="crispEdges"/>
<path d="M107.16 44.94H100.02V77H91.9702V44.94H87.4202V38.43H91.9702V35.7C91.9702 31.2667 93.1369 28.0467 95.4702 26.04C97.8502 23.9867 101.56 22.96 106.6 22.96V29.61C104.174 29.61 102.47 30.0767 101.49 31.01C100.51 31.8967 100.02 33.46 100.02 35.7V38.43H107.16V44.94ZM122.212 25.2V77H114.232V25.2H122.212ZM136.749 33.32C135.303 33.32 134.089 32.83 133.109 31.85C132.129 30.87 131.639 29.6567 131.639 28.21C131.639 26.7633 132.129 25.55 133.109 24.57C134.089 23.59 135.303 23.1 136.749 23.1C138.149 23.1 139.339 23.59 140.319 24.57C141.299 25.55 141.789 26.7633 141.789 28.21C141.789 29.6567 141.299 30.87 140.319 31.85C139.339 32.83 138.149 33.32 136.749 33.32ZM140.669 38.43V77H132.689V38.43H140.669Z" fill="url(#paint1_linear_549_21)" shape-rendering="crispEdges"/>
<path d="M173.476 52.71L188.596 77H179.636L168.646 59.36L158.356 77H149.466L164.586 52.71L149.396 28.35H158.356L169.416 46.13L179.776 28.35H188.666L173.476 52.71Z" fill="url(#paint2_radial_549_21)" shape-rendering="crispEdges"/>
</g>
<defs>
<filter id="filter0_d_549_21" x="0.72998" y="22.96" width="191.937" height="62.04" filterUnits="userSpaceOnUse" color-interpolation-filters="sRGB">
<feFlood flood-opacity="0" result="BackgroundImageFix"/>
<feColorMatrix in="SourceAlpha" type="matrix" values="0 0 0 0 0 0 0 0 0 0 0 0 0 0 0 0 0 0 127 0" result="hardAlpha"/>
<feOffset dy="4"/>
<feGaussianBlur stdDeviation="2"/>
<feComposite in2="hardAlpha" operator="out"/>
<feColorMatrix type="matrix" values="0 0 0 0 0 0 0 0 0 0 0 0 0 0 0 0 0 0 0.75 0"/>
<feBlend mode="normal" in2="BackgroundImageFix" result="effect1_dropShadow_549_21"/>
<feBlend mode="normal" in="SourceGraphic" in2="effect1_dropShadow_549_21" result="shape"/>
</filter>
<linearGradient id="paint0_linear_549_21" x1="157.5" y1="0" x2="157.5" y2="146" gradientUnits="userSpaceOnUse">
<stop stop-color="#830000"/>
<stop offset="1" stop-color="white" stop-opacity="0"/>
</linearGradient>
<linearGradient id="paint1_linear_549_21" x1="157.5" y1="0" x2="157.5" y2="146" gradientUnits="userSpaceOnUse">
<stop stop-color="white"/>
<stop offset="1" stop-color="white" stop-opacity="0"/>
</linearGradient>
<radialGradient id="paint2_radial_549_21" cx="0" cy="0" r="1" gradientUnits="userSpaceOnUse" gradientTransform="translate(157.5 73) rotate(90) scale(73 155.5)">
<stop stop-color="#9B0A0A"/>
<stop offset="1" stop-color="white" stop-opacity="0"/>
</radialGradient>
</defs>
</svg>
